<svg width="180" height="180" viewBox="0 0 180 180" fill="none" xmlns="http://www.w3.org/2000/svg">
  <defs>
    <!-- Brand gradient -->
    <linearGradient id="pvGrad" x1="24" y1="20" x2="150" y2="150" gradientUnits="userSpaceOnUse">
      <stop stop-color="#b33a82"/>
      <stop offset="1" stop-color="#6b1f4d"/>
    </linearGradient>
  </defs>

  <!-- Shield -->
  <path d="M90 18
           C116 32 135 35 150 37
           V82
           C150 118 128 145 90 162
           C52 145 30 118 30 82
           V37
           C45 35 64 32 90 18Z"
        fill="url(#pvGrad)"/>

  <!-- Inner border -->
  <path d="M90 34
           C109 45 123 47 134 49
           V81
           C134 107 118 126 90 139
           C62 126 46 107 46 81
           V49
           C57 47 71 45 90 34Z"
        fill="#000000"
        fill-opacity="0.2"
        stroke="white"
        stroke-opacity="0.3"
        stroke-width="2"/>

  <!-- Vault core -->
  <circle cx="90" cy="83" r="28"
          fill="#000000"
          fill-opacity="0.35"
          stroke="white"
          stroke-opacity="0.4"
          stroke-width="2"/>

  <!-- Player -->
  <circle cx="90" cy="72" r="7" fill="white"/>
  <path d="M76 98C79 88 86 84 90 84C94 84 101 88 104 98"
        stroke="white"
        stroke-width="6"
        stroke-linecap="round"/>

  <!-- Vault spokes -->
  <path d="M90 55V64" stroke="white" stroke-width="3" stroke-linecap="round"/>
  <path d="M90 102V111" stroke="white" stroke-width="3" stroke-linecap="round"/>
  <path d="M62 83H71" stroke="white" stroke-width="3" stroke-linecap="round"/>
  <path d="M109 83H118" stroke="white" stroke-width="3" stroke-linecap="round"/>
</svg>